/* XPM */
static char *_4ccafab2b494de18117ab8b35c1e694dn6yZ1hZUONe25DQ[] = {
/* columns rows colors chars-per-pixel */
"100 100 4 1 ",
"  c None",
". c black",
"X c #9000FF",
"o c white",
/* pixels */
"                                                                                                    ",
"                                                                                                    ",
"                                                                                                    ",
"                                                                                                    ",
"                                                                                                    ",
"                                                                                                    ",
"                                                                                                    ",
"                                                                                                    ",
"                                                                                                    ",
"                                                                                                    ",
"                                                                                                    ",
"                                                                                                    ",
"                                                                                                    ",
"                 ............                                                                       ",
"             .......XXXXXXXX................                                                        ",
"           .....XXXXoooooooooooooooooooooXX..                                                       ",
"          .....Xoooooooooooooooooooooooooooo...                                                     ",
"          .XXooooooooooooooooooooooooooooooooo..                                                    ",
"          XXooooooooooooooooooooooooooooooooooo..                                                   ",
"          ooooooooooooooooooooooooooooooooooooooo                                                   ",
"          ooooooooooooooooooooooooooooooooooooooo.            ..                                    ",
"          oooooooooooooooooooooooooooooooooooooooX.           ..                                    ",
"          ...oooooooooooooooooooooooooooooooooooooX.          .X.                                   ",
"            .....oooooooooooooooooooooooooooooooooX..        ..o..                                  ",
"                ..oooooooooooooooooooooooooooooooooX.        .Xoo.                                  ",
"                 .XXoooooooooooooooooooooooooooooooo..      ..Xoo..                                 ",
"                  .XXoooooooooooooooooooooooooooooooX.      .XoooX..                                ",
"                  ..XXooooooooooooooooooooooooooooooX.      .XooooX....                             ",
"                   ..XooooooooooooooooooooooooooooooX.     .XXooooXXXX..                            ",
"                    ..XoooooooooooooooooooooooooooooX.     .XooooooXooX..                           ",
"                     ..Xooooooooooooooooooooooooooooo.    ..XooooooXoooo..X                         ",
"                       .ooooooooooooooooooooooooooooo.    .XoooooooXooooo..                         ",
"                       ..oooooooooooooooooooooooooooo..  ..XoooooooXoooooo..                        ",
"                        .ooooooooooooooooooooooooooooX.....XoooooooXooooooo..                       ",
"                        .ooooooooooooooooooooooooooooXXX...XoooooooXoooooooX.X                      ",
"                        .XooooooooooooooooooooooooXXX....ooXoooooooXoooooooo.X                      ",
"                        .XoooooooooooooooooooooooX....oooooooooooooooooooooo..                      ",
"                        .XooooooooooooooooooooXX...oooooooooooooooooooooooooo.X                     ",
"                        .XooooooooooooooooooXX...oooooooooooooooooooooooooooo..                     ",
"                        .XooooooooooXXXXXXXXXXooooooooooooooooooooooXXooooooo..                     ",
"                        .XoooooooXXXooooooooooooooooooooooooooooooooX.ooooooo..                     ",
"                       ..XoooooXXXooooooooooooooooooooooooooooooooooX.oooooooo..                    ",
"                       .XooooooXoooooooooooooooooooooooooooooooooooooooooooooo..                    ",
"                       .XoooooXXooooooooooooooooooooooooooooooooooooooooooooooo.                    ",
"                      ..ooooooXooooooooooooooooooooooooooooooooooooooooooooooooX                    ",
"                     ..XoooooXXooooooooooooooooooooooooooooooooooooooooooooooX..                    ",
"                    ..XooooooXoooooooooooooooooooooooooooooooooooooooooooooooX..                    ",
"                   ..XooooooXXoooooooooooooooooooooooooooooooooooooooooooooooX..                    ",
"                   .XXooooooXooooooooooooooooooooooooooooooooooooooooooo..XXX                       ",
"                   .XooooooXXooooooooooooooooooooooooooooooooooooooooo.....                         ",
"                  ..oooooooXooooooooooooooooooooooooooooooooooooXXX...oooX.                         ",
"                  .XoooooooXoooooooooooooooooooooooooooooooooooooooooooooo...                       ",
"                  .ooooooooXoooooooooooooooooooooooooooooooooooooooooooooooo.                       ",
"                 .XooooooooXoooooooooooooooooooooooooooooooooooooooooooooooo.                       ",
"                .XoooooooooXooooooooooooooooooooooooooooooooooooooooXXXooooX.                       ",
"                .XoooooooooXooooooooooooooooooooooXXoooooooooooooo... ..XXXX.                       ",
"                .XoooooooooXoooooooooooooooooooooooXXXXoooooooXX...    ......                       ",
"                .XoooooooooXXoooooooooooooooooooooooooXXXooXXX...                                   ",
"                ..XoooooooooXoooooooooooooooooooooooooooXXXXX..                                     ",
"                 .XoooooooooXooooooooooooooooooooooooooooXX..                                       ",
"                 ..XooooooooXooooooooooooooooooooooooooooooX                                        ",
"                  .XooooooooXooooooooooooooooooooooooooooooX                                        ",
"                   .XooooooooXoooooooooooooooooooooooooooooX                                        ",
"                   ..ooooooooXoooooooooooooooooooooooooooooX                                        ",
"                    .XoooooooXXooooooooooooooooooooooooooooX                                        ",
"                     .XoooooooXXoooooooooooooooooooooooooXX.                                        ",
"                     ..ooooooooXoooooooooooooooooooooooooX.                                         ",
"                      ..oooooooXXoooooooooooooooooooooooXX.                                         ",
"                       ..oooooooXXooooooooooooooooooooooX.                                          ",
"                        X..ooooooXooooooooooooooooooooXX..                                          ",
"                         X..ooooooooooooooooooooooXXXXX.....                                        ",
"                           ...ooooooooooooooooooooXXXXXXXXX.....                                    ",
"                             ..XoooooooooooooooooooooooooooooXX..                                   ",
"                              ..XXoooooooooooooooooooooooooooooX..                                  ",
"                                ..XXooooooooooooooooooooooooooooX.                                  ",
"                                  .......ooooooooooooooooooooooX..                                  ",
"                                        .....XXooooooooooooooXX..                                   ",
"                                             ..XXXXXXXXXXXX.....                                    ",
"                                              ..............                                        ",
"                                                                                                    ",
"                                                                                                    ",
"                                                                                                    ",
"                                                                                                    ",
"                                                                                                    ",
"                                                                                                    ",
"                                                                                                    ",
"                                                                                                    ",
"                                                                                                    ",
"                                                                                                    ",
"                                                                                                    ",
"                                                                                                    ",
"                                                                                                    ",
"                                                                                                    ",
"                                                                                                    ",
"                                                                                                    ",
"                                                                                                    ",
"                                                                                                    ",
"                                                                                                    ",
"                                                                                                    ",
"                                                                                                    "
};
