/* XPM */
static char *cddf10174c424453de00a1b4fdb2693cbhXpFxGbgQAVJ60p[] = {
/* columns rows colors chars-per-pixel */
"100 100 3 1 ",
"  c None",
". c black",
"X c #9C5A3C",
/* pixels */
"                                                                                                    ",
"                                                                                                    ",
"                                                                                                    ",
"                                                                                                    ",
"                                                                                                    ",
"                                                                                                    ",
"                                                                                                    ",
"                                                                                                    ",
"                                                                                                    ",
"                                                                                                    ",
"                                                                                                    ",
"                                                                                                    ",
"                                                                                                    ",
"                                                                                                    ",
"                                                    ..                                              ",
"                                                  ..X..                                             ",
"                                    ........      .XX..                                             ",
"                                  ..XXXXXXXXXX....XX.                                               ",
"                                  .XXXXXXXXXXXXXXXX..                                               ",
"                                  .XXXXXXXXXXXXXXXXXX.                                              ",
"                                   XXXXXXXXXXXXXXXXXXX..                                            ",
"                                  .XXXXXXXXXXXXXXXXXXXXX.                                           ",
"                                ..X..XXXXXXXXXXXXXXXXXXXX.                                          ",
"                                .XXXX.XXXXXXXXXXXXXXXXXXX.                                          ",
"                               .XXXXXXXX....XXXXXXXXXXXXX..                                         ",
"                               .XXXXXXXXXXXX........XXXXXX.                                         ",
"                               XXXXXXXXXXXXXXXXXXXXXXXX..                                           ",
"                               XXXXXXXXXXXXXXXXXXXXXXXXX.                                           ",
"                              .XXXXXXXXXXXXXXXXXXXXXXXXX.                                           ",
"                              .XXXXXXXXXXXXXXXXXXXXXXXXX.                                           ",
"                             ..XXXXXXXXXXXXXXXXXXXXXXXX..                                           ",
"                             .XXXXXXXXXXXXXXXXXXXXXXXXX.                                            ",
"                              .XXXXXXXXXXXXXXXXXXXXXXXX.                                            ",
"                               XXXXXXXXXXXXXXXXXXXXXXX.                                             ",
"                               .XXXXXXXXXXXXXXXXXXXXX.                                              ",
"                               .XXXXXXXXXXXXXXXXXXXX.                                               ",
"                                ..XXXXXXXXXXXXXXX..                                                 ",
"                                  .XXXXXXXXXX...                                                    ",
"                                  .XXXXXXXX..                                                       ",
"                                   ......                                                           ",
"                                     ..                                                             ",
"                                                                                                    ",
"                                                                                                    ",
"                                                                                                    ",
"                                                                                                    ",
"                                                                                                    ",
"                                                                                                    ",
"                                                                                                    ",
"                                                                                                    ",
"                                                                                                    ",
"                                                                                                    ",
"                                                                                                    ",
"                                                                                                    ",
"                                                                                                    ",
"                                                                                                    ",
"                                                                                                    ",
"                                                                                                    ",
"                                                                                                    ",
"                                                                                                    ",
"                                                                                                    ",
"                                                                                                    ",
"                                                                                                    ",
"                                                                                                    ",
"                                                                                                    ",
"                                                                                                    ",
"                                                                                                    ",
"                                                                                                    ",
"                                                                                                    ",
"                                                                                                    ",
"                                                                                                    ",
"                                                                                                    ",
"                                                                                                    ",
"                                                                                                    ",
"                                                                                                    ",
"                                                                                                    ",
"                                                                                                    ",
"                                                                                                    ",
"                                                                                                    ",
"                                                                                                    ",
"                                                                                                    ",
"                                                                                                    ",
"                                                                                                    ",
"                                                                                                    ",
"                                                                                                    ",
"                                                                                                    ",
"                                                                                                    ",
"                                                                                                    ",
"                                                                                                    ",
"                                                                                                    ",
"                                                                                                    ",
"                                                                                                    ",
"                                                                                                    ",
"                                                                                                    ",
"                                                                                                    ",
"                                                                                                    ",
"                                                                                                    ",
"                                                                                                    ",
"                                                                                                    ",
"                                                                                                    ",
"                                                                                                    "
};
