/* XPM */
static char *_68c19dbb74c499fe5ced6471ac495f2CZEPs8gIjWEEWZAg[] = {
/* columns rows colors chars-per-pixel */
"100 100 4 1 ",
"  c None",
". c #9C5A3C",
"X c #22B14C",
"o c #A8E61D",
/* pixels */
"                                                                                                    ",
"                                                                                                    ",
"                                                                                                    ",
"                                                                                                    ",
"                                                                                                    ",
"                                                                                                    ",
"                                                                                                    ",
"                                                                                                    ",
"                                                                                                    ",
"                                                                                                    ",
"                                                                                                    ",
"                                                                                                    ",
"                                                                                                    ",
"                                                                                                    ",
"                                                                                                    ",
"                                                                                                    ",
"                                                                                                    ",
"                                                                                                    ",
"                                                                                                    ",
"                                                                                                    ",
"                                                                                                    ",
"                                XXXXXXXXXX                 XXXXXXXX                                 ",
"                              XXXXXXXXXXXXXXX          XXXXXXXXXXXXXXXX                             ",
"                            XXXXXXXXXXXXXXXXXXXX     XXXXXXXXXXXXXXXXXXXXXX                         ",
"                           XXXXXXXXXXXXXXXXXXXXXXX  XXXXXXXXXXXXXXXXXXXXXXXXXX                      ",
"                           XXXXXXXXXXXXXXXXXXXXXXXXXXXXXXXXXXXXXXXXXXXXXXXXXXXX                     ",
"                          XXXXXXXXXXXXXXXXXXXXXXXXXXXXXXXXXXXXXXXXXXXXXXXXXXXXXXXX                  ",
"                         XXXXXXXXXXXXXXXXXXXXXXXXXXXXXXXXXXXXXXXXXXXXXXXXXXXXXXXXXX                 ",
"                         XXXXXXXXXXXXXXXXXXXXXXXXXXXXXXXXXXXXXXXXXXXXXXXXXXXXXXXXXXX                ",
"                         XXXXXXXXXXXXXXXXXXXXXXXXXXXXXXXXXXXXXXXXXXXXXXXXXXXXXXXXXXX                ",
"                         XXXXXXXXXXXXXXXXXXXXXXXXXXXXXXXXXXXXXXXXXXXXXXXXXXXXXXXXXXX                ",
"                        XXXXXXXXXXXXXXXXXXXXXXXXXXXXXXXXXXXXXXXXXXXXXXXXXXXXXXXXXXXX                ",
"                 XXXXXXXXXXXXXXXXXXXXXXXXXXXXXXXXXXXXXXXXXXXXXXXXXXXXXXXXXXXXXXXXXXX                ",
"                XXXXXXXXXXXXXXXXXXXXXXXXXXXXXXXXXXXXXXXXXXXXXXXXXXXXXXXXXXXXXXXXXXX                 ",
"                XXXXXXXXXXXXXXXXXXXXXXXXXXXXXXXXXXXXXXXXXXXXXXXXXXXXXXXXXXXXXXXXXXX                 ",
"                XXXXXXXXXXXXXXXXXXXXXXXXXXXXXoXXXXXXXXXXXXXXXXXXXXXXXXXXXXXXXXXX                    ",
"                XXXXXXXXXXXXXXXXXXXXXXXXXXXXXXXXXXXXXXXXXXXXXXXXXXXXXXXXXXXXXX                      ",
"                XXXXXXXXXXXXXXXXXXXXXXXXXXXXXXXXXXXXXXXXXXXXXXXXXXXXXXXXXXXXXXX                     ",
"                XXXXXXXXXXXXXXXXXXXXXXXXXXXXXXXXXXXXXXXXXXXXXXXXXXXXXXXXXXXXXXXX                    ",
"                XXXXXXXXoXXXXXXXXXXXXXXXXXXXXXXXXXXXXXXXXXXXXXXXXXXXXXXXXXXXXXXXX                   ",
"                XXXXXXXXXoXXXXXXXXXXXXXXXXXXXXXXXXXXXXXXXXXXXXXXXXXXXXXXXXXXXXXXX                   ",
"                XXXXXXXXXXXXXXXXXXXXXXXXXXXXXXXXXXXXXXXXXXXXXXXXXXXXXXXXXXXXXXXXXX                  ",
"                 XXXXXXXXXXXXXXXXXXXXXXXXXXXXXXXXXXXXXXXXXXXXXXXXXXXXXXXXXXXXXXXXX                  ",
"                 XXXXXXXXXXXXXXXXXXXXXXXXXXXXXXXXXXXXXXXXXXXXXXXXXXXXXXXXXXXXXXXXX                  ",
"                  XXXXXXXXXXXXXXXXXXXXXXXXXXXXXXXXXXXXXXXXXXXXXXXXXXXXXXXXXXXXXXXX                  ",
"                  XXXXXXXXXXXXXXXXXXXXXXXXXXXXXXXXXXXXXXXXXXXXXXXXXXXXXXXXXXXXXXXX                  ",
"                    XXXXXXXXXXXXXXXXXXXXXXXXXXXXXXXXXXXXXXXXXXXXXXXXXXXXXXXXXXXXXXX                 ",
"                     XXXXXXXXXXXXXXXXXXXXXXXXXXXXXXXXXXXXXXXXXXXXXXXXXXXXXXXXXXXXXX                 ",
"                       XXXXXXXXXXXX....XXXXXXXXXXXXXXXXXXXXX..XXXXXXXXXXXXXXXXXXXX                  ",
"                      XXXXXXXXXXXXXX........XXXXXXXXXXXXXX...XXXXXXXXXXXXXXXXXXXXX                  ",
"                      XXXXXXXXXXXXXXX............XXXXXX.....XXXXXXXXXXXXXXXXXXXXXX                  ",
"                     XXXXXXXXXXXXXXXX.....................XXXXXXXXXXXXXXXXXXXXXX                    ",
"                     XXXXXXXXXXXXXXXXX...................XXXXXXXXXXXXXXXXXXXXX                      ",
"                     XXXXXXXXXXXXXXXXXX..................XXXXXXXXXXXXXXXXXXXX                       ",
"                     XXXXXXXXXXoXXXXXXX.................XXXXXXXXXXXXXXXXXXXXX                       ",
"                      XXXXXXXXXXXXXXXXXX...............XXXXXXXXXXXXXXXXXXXXXX                       ",
"                      XXXXXXXXXXXXXXXXXX...............XXXXXXXXXXXXXXXXXXXXX                        ",
"                       XXXXXXooXXXXXXXXXX.............XXXXXXXXXXXXXXXXXXXXXX                        ",
"                        XXXXXXXXXXXXXXXXX.............XXXXXXXXXXXXXXXXXXXXX                         ",
"                         XXXXXXXXXXXXXXXXX............XXXXXXXXXXXXXXXXXXXX                          ",
"                          XXXXXXXXXXXXXX  ............XXXXXXXXXXXXXXXXXX                            ",
"                             XXXXXXX      ............XXXXXXXXXXXXXXXX                              ",
"                                          ............XXXXXXXXXXXX                                  ",
"                                          ............                                              ",
"                                           ...........                                              ",
"                                           ...........           oo                                 ",
"                                           ............        oooo                                 ",
"                                           ............        oooXX                                ",
"                                           ............       .ooXXX                                ",
"                                           .....................XXX                                 ",
"                                           ....................XXX                                  ",
"                                           .............       .                                    ",
"                                           ..............                                           ",
"                                           ..............                                           ",
"                                           ..............                                           ",
"                                           ...............                                          ",
"                                          .................                                         ",
"                                          .................                                         ",
"                                          .................                                         ",
"                                          ..................                                        ",
"                                          ...................                                       ",
"                                          ...................                                       ",
"                                         .............X.......                                      ",
"              XXX         XX          X  ..........XXXXX......                                      ",
"              XXXX      XXXXX       XXX ..........XXXXXXX......       XXXXXX           XXX          ",
"             XXXXXX  XXXXXXXXX     XXXXX.........XXXXXXXXX......  XXXXXXXXXXX        XXXXX          ",
"            XXXXXXXXXXXXXXXXXX   XXXXXXXX.......XXXXXXXXXX......XXXXXXXXXXXXX      XXXXXXXX         ",
"           XXXXXXXXXXXXXXXXXXXXXXXXXXXXXXX....XXXXXXXXXXXXX...XXXXXXXXXXXXXXXX    XXXXXXXXX         ",
"           XXXXXXXXXXXXXXXXXXXXXXXXXXXXXXXXXXXXXXXXXXXXXXXXXXXXXXXXXXXXXXXXXXXXXXXXXXXXXXXXX        ",
"          XXXXXXXXXXXXXXXXXXXXXXXXXXXXXXXXXXXXXXXXXXXXXXXXXXXXXXXXXXXXXXXXXXXXXXXXXXXXXXXXXX        ",
"         XXXXXXXXXXXXXXXXXXXXXXXXXXXXXXXXXXXXXXXXXXXXXXXXXXXXXXXXXXXXXXXXXXXXXXXXXXXXXXXXXXXX       ",
"         XXXXXXXXXXXXXXXXXXXXXXXXXXXXXXXXXXXXXXXXXXXXXXXXXXXXXXXXXXXXXXXXXXXXXXXXXXXXXXXXXXXX       ",
"        XXXXXXXXXXXXXXXXXXXXXXXXXXXXXXXXXXXXXXXXXXXXXXXXXXXXXXXXXXXXXXXXXXXXXXXXXXXXXXXXXXXXX       ",
"        XXXXXXXXXXXXXXXXXXXXXXXXXXXXXXXXXXXXXXXXXXXXXXXXXXXXXXXXXXXXXXXXXXXXXXXXXXXXXXXXXXXXX       ",
"                                                                                                    ",
"                                                                                                    ",
"                                                                                                    ",
"                                                                                                    ",
"                                                                                                    ",
"                                                                                                    "
};
