/* XPM */
static char *e83bb0e01dbe4e22da2216819b74e3a2CsNgLgNteCaeYBfa[] = {
/* columns rows colors chars-per-pixel */
"100 100 3 1 ",
"  c None",
". c black",
"X c white",
/* pixels */
"XXXXXXXXXXXXXXXXXXXXXXXXXXXXXXXXXXXXXXXXXXXXXXXXXXXXXXXXXXXXXXXXXXXXXXXXXXXXXXXXXXXXXXXXXXXXXXXXXXXX",
"X X..............XXXXXXXXXXXXXXXXXXXXX X....................XXXXXXXXXXXXXXXXXXXXXXX X..............X",
"X X..............XXXXXXXXXXXXXXXXXXXXX X....................XXXXXXXXXXXXXXXXXXXXXXX X..............X",
"X X..............XXXXXXXXXXXXXXXXXXXXX X....................XXXXXXXXXXXXXXXXXXXXXXX X..............X",
"X X..............XXXXXXXXXXXXXXXXXXXXX X....................XXXXXXXXXXXXXXXXXXXXXXX X..............X",
"X X..............XXXXXXXXXXXXXXXXXXXXX X....................XXXXXXXXXXXXXXXXXXXXXXX X..............X",
"X X..............XXXXXXXXXXXXXXXXXXXXX X....................XXXXXXXXXXXXXXXXXXXXXXX X..............X",
"X X..............XXXXXXXXXXXXXXXXXXXXX X....................XXXXXXXXXXXXXXXXXXXXXXX X..............X",
"X X..............XXXXXXXXXXXXXXXXXXXXX X....................XXXXXXXXXXXXXXXXXXXXXXX X..............X",
"X X..............XXXXXXXXXXXXXXXXXXXXX X....................XXXXXXXXXXXXXXXXXXXXXXX X..............X",
"X X..............XXXXXXXXXXXXXXXXXXXXX X....................XXXXXXXXXXXXXXXXXXXXXXX X..............X",
"X X..............XXXXXXXXXXXXXXXXXXXXX X....................XXXXXXXXXXXXXXXXXXXXXXX X..............X",
"X X..............XXXXXXXXXXXXXXXXXXXXX X....................XXXXXXXXXXXXXXXXXXXXXXX X..............X",
"X X..............XXXXXXXXXXXXXXXXXXXXX X....................XXXXXXXXXXXXXXXXXXXXXXX X..............X",
"X X..............XXXXXXXXXXXXXXXXXXXXX X....................XXXXXXXXXXXXXXXXXXXXXXX X..............X",
"X X..............XXXXXXXXXXXXXXXXXXXXX X....................XXXXXXXXXXXXXXXXXXXXXXX X..............X",
"X X..............XXXXXXXXXXXXXXXXXXXXX X....................XXXXXXXXXXXXXXXXXXXXXXX X..............X",
"X X..............XXXXXXXXXXXXXXXXXXXXX X....................XXXXXXXXXXXXXXXXXXXXXXX X..............X",
"X X..............XXXXXXXXXXXXXXXXXXXXX X....................XXXXXXXXXXXXXXXXXXXXXXX X..............X",
"XXXXXXXXXXXXXXXXXXXXXXXXXXXXXXXXXXXXXXXXXXXXXXXXXXXXXXXXXXXXXXXXXXXXXXXXXXXXXXXXXXXXXXXXXXXXXXXXXXXX",
"XXXXXXXXXXXXXXXXXXXXXXXXXXXXXXXXXXXXXXXXXXXXXXXXXXXXXXXXXXXXXXXXXXXXXXXXXXXXXXXXXXXXXXXXXXXXXXXXXXXX",
"XXXXXXXXXXXXXXXXXXXXXXXXXXXXXXXXXXXXXXXXXXXXXXXXXXXXXXXXXXXXXXXXXXXXXXXXXXXXXXXXXXXXXXXXXXXXXXXXXXXX",
"XXXXXXXXXXXXXXXXXXXXXXXXXXXXXXXXXXXXXXXXXXXXXXXXXXXXXXXXXXXXXXXXXXXXXXXXXXXXXXXXXXXXXXXXXXXXXXXXXXXX",
"XXXXXXXXXXXXXXXXXXXXXXXXXXXXXXXXXXXXXXXXXXXXXXXXXXXXXXXXXXXXXXXXXXXXXXXXXXXXXXXXXXXXXXXXXXXXXXXXXXXX",
"XXXXXXXXXXXXXXXXXXXXXXXXXXXXXXXXXXXXXXXXXXXXXXXXXXXXXXXXXXXXXXXXXXXXXXXXXXXXXXXXXXXXXXXXXXXXXXXXXXXX",
"XXXXXXXXXXXXXXXXXXXXXXXXXXXXXXXXXXXXXXXXXXXXXXXXXXXXXXXXXXXXXXXXXXXXXXXXXXXXXXXXXXXXXXXXXXXXXXXXXXXX",
"XXXXXXXXXXXXXXXXXXXXXXXXXXXXXXXXXXXXXXXXXXXXXXXXXXXXXXXXXXXXXXXXXXXXXXXXXXXXXXXXXXXXXXXXXXXXXXXXXXXX",
"XXXXXXXXXXXXXXXXXXXXXXXXXXXXXXXXXXXXXXXXXXXXXXXXXXXXXXXXXXXXXXXXXXXXXXXXXXXXXXXXXXXXXXXXXXXXXXXXXXXX",
"XXXXXXXXXXXXXXXXXXXXXXXXXXXXXXXXXXXXXXXXXXXXXXXXXXXXXXXXXXXXXXXXXXXXXXXXXXXXXXXXXXXXXXXXXXXXXXXXXXXX",
"XXXXXXXXXXXXXXXXXXXXXXXXXXXXXXXXXXXXXXXXXXXXXXXXXXXXXXXXXXXXXXXXXXXXXXXXXXXXXXXXXXXXXXXXXXXXXXXXXXXX",
"XXXXXXXXXXXXXXXXXXXXXXXXXXXXXXXXXXXXXXXXXXXXXXXXXXXXXXXXXXXXXXXXXXXXXXXXXXXXXXXXXXXXXXXXXXXXXXXXXXXX",
"XXXXXXXXXXXXXXXXXXXXXXXXXXXXXXXXXXXXXXXXXXXXXXXXXXXXXXXXXXXXXXXXXXXXXXXXXXXXXXXXXXXXXXXXXXXXXXXXXXXX",
"XXXXXXXXXXXXXXXXXXXXXXXXXXXXXXXXXXXXXXXXXXXXXXXXXXXXXXXXXXXXXXXXXXXXXXXXXXXXXXXXXXXXXXXXXXXXXXXXXXXX",
"XXXXXXXXXXXXXXXXXXXXXXXXXXXXXXXXXXXXXXXXXXXXXXXXXXXXXXXXXXXXXXXXXXXXXXXXXXXXXXXXXXXXXXXXXXXXXXXXXXXX",
"XXXXXXXXXXXXXXXXXXXXXXXXXXXXXXXXXXXXXXXXXXXXXXXXXXXXXXXXXXXXXXXXXXXXXXXXXXXXXXXXXXXXXXXXXXXXXXXXXXXX",
"XXXXXXXXXXXXXXXXXXXXXXXXXXXXXXXXXXXXXXXXXXXXXXXXXXXXXXXXXXXXXXXXXXXXXXXXXXXXXXXXXXXXXXXXXXXXXXXXXXXX",
"XXXXXXXXXXXXXXXXXXXXXXXXXXXXXXXXXXXXXXXXXXXXXXXXXXXXXXXXXXXXXXXXXXXXXXXXXXXXXXXXXXXXXXXXXXXXXXXXXXXX",
"X                XXXXXXXXXXXXXXXXXXXXX                      XXXXXXXXXXXXXXXXXXXXXXX                X",
"X XXXXXXXXXXXXXXXXXXXXXXXXXXXXXXXXXXXX XXXXXXXXXXXXXXXXXXXXXXXXXXXXXXXXXXXXXXXXXXXX XXXXXXXXXXXXXXXX",
"X X..............XXXXXXXXXXXXXXXXXXXXX X....................XXXXXXXXXXXXXXXXXXXXXXX X..............X",
"X X..............XXXXXXXXXXXXXXXXXXXXX X....................XXXXXXXXXXXXXXXXXXXXXXX X..............X",
"X X..............XXXXXXXXXXXXXXXXXXXXX X....................XXXXXXXXXXXXXXXXXXXXXXX X..............X",
"X X..............XXXXXXXXXXXXXXXXXXXXX X....................XXXXXXXXXXXXXXXXXXXXXXX X..............X",
"X X..............XXXXXXXXXXXXXXXXXXXXX X....................XXXXXXXXXXXXXXXXXXXXXXX X..............X",
"X X..............XXXXXXXXXXXXXXXXXXXXX X....................XXXXXXXXXXXXXXXXXXXXXXX X..............X",
"X X..............XXXXXXXXXXXXXXXXXXXXX X....................XXXXXXXXXXXXXXXXXXXXXXX X..............X",
"X X..............XXXXXXXXXXXXXXXXXXXXX X....................XXXXXXXXXXXXXXXXXXXXXXX X..............X",
"X X..............XXXXXXXXXXXXXXXXXXXXX X....................XXXXXXXXXXXXXXXXXXXXXXX X..............X",
"X X..............XXXXXXXXXXXXXXXXXXXXX X....................XXXXXXXXXXXXXXXXXXXXXXX X..............X",
"X X..............XXXXXXXXXXXXXXXXXXXXX X....................XXXXXXXXXXXXXXXXXXXXXXX X..............X",
"X X..............XXXXXXXXXXXXXXXXXXXXX X....................XXXXXXXXXXXXXXXXXXXXXXX X..............X",
"X X..............XXXXXXXXXXXXXXXXXXXXX X....................XXXXXXXXXXXXXXXXXXXXXXX X..............X",
"X X..............XXXXXXXXXXXXXXXXXXXXX X....................XXXXXXXXXXXXXXXXXXXXXXX X..............X",
"X X..............XXXXXXXXXXXXXXXXXXXXX X....................XXXXXXXXXXXXXXXXXXXXXXX X..............X",
"X X..............XXXXXXXXXXXXXXXXXXXXX X....................XXXXXXXXXXXXXXXXXXXXXXX X..............X",
"X X..............XXXXXXXXXXXXXXXXXXXXX X....................XXXXXXXXXXXXXXXXXXXXXXX X..............X",
"X X..............XXXXXXXXXXXXXXXXXXXXX X....................XXXXXXXXXXXXXXXXXXXXXXX X..............X",
"X X..............XXXXXXXXXXXXXXXXXXXXX X....................XXXXXXXXXXXXXXXXXXXXXXX X..............X",
"X X..............XXXXXXXXXXXXXXXXXXXXX X....................XXXXXXXXXXXXXXXXXXXXXXX X..............X",
"X X..............XXXXXXXXXXXXXXXXXXXXX X....................XXXXXXXXXXXXXXXXXXXXXXX X..............X",
"X X..............XXXXXXXXXXXXXXXXXXXXX X....................XXXXXXXXXXXXXXXXXXXXXXX X..............X",
"XXXXXXXXXXXXXXXXXXXXXXXXXXXXXXXXXXXXXXXXXXXXXXXXXXXXXXXXXXXXXXXXXXXXXXXXXXXXXXXXXXXXXXXXXXXXXXXXXXXX",
"XXXXXXXXXXXXXXXXXXXXXXXXXXXXXXXXXXXXXXXXXXXXXXXXXXXXXXXXXXXXXXXXXXXXXXXXXXXXXXXXXXXXXXXXXXXXXXXXXXXX",
"XXXXXXXXXXXXXXXXXXXXXXXXXXXXXXXXXXXXXXXXXXXXXXXXXXXXXXXXXXXXXXXXXXXXXXXXXXXXXXXXXXXXXXXXXXXXXXXXXXXX",
"XXXXXXXXXXXXXXXXXXXXXXXXXXXXXXXXXXXXXXXXXXXXXXXXXXXXXXXXXXXXXXXXXXXXXXXXXXXXXXXXXXXXXXXXXXXXXXXXXXXX",
"XXXXXXXXXXXXXXXXXXXXXXXXXXXXXXXXXXXXXXXXXXXXXXXXXXXXXXXXXXXXXXXXXXXXXXXXXXXXXXXXXXXXXXXXXXXXXXXXXXXX",
"XXXXXXXXXXXXXXXXXXXXXXXXXXXXXXXXXXXXXXXXXXXXXXXXXXXXXXXXXXXXXXXXXXXXXXXXXXXXXXXXXXXXXXXXXXXXXXXXXXXX",
"XXXXXXXXXXXXXXXXXXXXXXXXXXXXXXXXXXXXXXXXXXXXXXXXXXXXXXXXXXXXXXXXXXXXXXXXXXXXXXXXXXXXXXXXXXXXXXXXXXXX",
"XXXXXXXXXXXXXXXXXXXXXXXXXXXXXXXXXXXXXXXXXXXXXXXXXXXXXXXXXXXXXXXXXXXXXXXXXXXXXXXXXXXXXXXXXXXXXXXXXXXX",
"XXXXXXXXXXXXXXXXXXXXXXXXXXXXXXXXXXXXXXXXXXXXXXXXXXXXXXXXXXXXXXXXXXXXXXXXXXXXXXXXXXXXXXXXXXXXXXXXXXXX",
"XXXXXXXXXXXXXXXXXXXXXXXXXXXXXXXXXXXXXXXXXXXXXXXXXXXXXXXXXXXXXXXXXXXXXXXXXXXXXXXXXXXXXXXXXXXXXXXXXXXX",
"XXXXXXXXXXXXXXXXXXXXXXXXXXXXXXXXXXXXXXXXXXXXXXXXXXXXXXXXXXXXXXXXXXXXXXXXXXXXXXXXXXXXXXXXXXXXXXXXXXXX",
"XXXXXXXXXXXXXXXXXXXXXXXXXXXXXXXXXXXXXXXXXXXXXXXXXXXXXXXXXXXXXXXXXXXXXXXXXXXXXXXXXXXXXXXXXXXXXXXXXXXX",
"XXXXXXXXXXXXXXXXXXXXXXXXXXXXXXXXXXXXXXXXXXXXXXXXXXXXXXXXXXXXXXXXXXXXXXXXXXXXXXXXXXXXXXXXXXXXXXXXXXXX",
"XXXXXXXXXXXXXXXXXXXXXXXXXXXXXXXXXXXXXXXXXXXXXXXXXXXXXXXXXXXXXXXXXXXXXXXXXXXXXXXXXXXXXXXXXXXXXXXXXXXX",
"XXXXXXXXXXXXXXXXXXXXXXXXXXXXXXXXXXXXXXXXXXXXXXXXXXXXXXXXXXXXXXXXXXXXXXXXXXXXXXXXXXXXXXXXXXXXXXXXXXXX",
"XXXXXXXXXXXXXXXXXXXXXXXXXXXXXXXXXXXXXXXXXXXXXXXXXXXXXXXXXXXXXXXXXXXXXXXXXXXXXXXXXXXXXXXXXXXXXXXXXXXX",
"X                XXXXXXXXXXXXXXXXXXXXX                      XXXXXXXXXXXXXXXXXXXXXXX                X",
"XXXXXXXXXXXXXXXXXXXXXXXXXXXXXXXXXXXXXX XXXXXXXXXXXXXXXXXXXXXXXXXXXXXXXXXXXXXXXXXXXX XXXXXXXXXXXXXXXX",
"X X..............XXXXXXXXXXXXXXXXXXXXX X....................XXXXXXXXXXXXXXXXXXXXXXX X..............X",
"X X..............XXXXXXXXXXXXXXXXXXXXX X....................XXXXXXXXXXXXXXXXXXXXXXX X..............X",
"X X..............XXXXXXXXXXXXXXXXXXXXX X....................XXXXXXXXXXXXXXXXXXXXXXX X..............X",
"X X..............XXXXXXXXXXXXXXXXXXXXX X....................XXXXXXXXXXXXXXXXXXXXXXX X..............X",
"X X..............XXXXXXXXXXXXXXXXXXXXX X....................XXXXXXXXXXXXXXXXXXXXXXX X..............X",
"X X..............XXXXXXXXXXXXXXXXXXXXX X....................XXXXXXXXXXXXXXXXXXXXXXX X..............X",
"X X..............XXXXXXXXXXXXXXXXXXXXX X....................XXXXXXXXXXXXXXXXXXXXXXX X..............X",
"X X..............XXXXXXXXXXXXXXXXXXXXX X....................XXXXXXXXXXXXXXXXXXXXXXX X..............X",
"X X..............XXXXXXXXXXXXXXXXXXXXX X....................XXXXXXXXXXXXXXXXXXXXXXX X..............X",
"X X..............XXXXXXXXXXXXXXXXXXXXX X....................XXXXXXXXXXXXXXXXXXXXXXX X..............X",
"X X..............XXXXXXXXXXXXXXXXXXXXX X....................XXXXXXXXXXXXXXXXXXXXXXX X..............X",
"X X..............XXXXXXXXXXXXXXXXXXXXX X....................XXXXXXXXXXXXXXXXXXXXXXX X..............X",
"X X..............XXXXXXXXXXXXXXXXXXXXX X....................XXXXXXXXXXXXXXXXXXXXXXX X..............X",
"X X..............XXXXXXXXXXXXXXXXXXXXX X....................XXXXXXXXXXXXXXXXXXXXXXX X..............X",
"X X..............XXXXXXXXXXXXXXXXXXXXX X....................XXXXXXXXXXXXXXXXXXXXXXX X..............X",
"X X..............XXXXXXXXXXXXXXXXXXXXX X....................XXXXXXXXXXXXXXXXXXXXXXX X..............X",
"X X..............XXXXXXXXXXXXXXXXXXXXX X....................XXXXXXXXXXXXXXXXXXXXXXX X..............X",
"X X..............XXXXXXXXXXXXXXXXXXXXX X....................XXXXXXXXXXXXXXXXXXXXXXX X..............X",
"X X..............XXXXXXXXXXXXXXXXXXXXX X....................XXXXXXXXXXXXXXXXXXXXXXX X..............X",
"X X..............XXXXXXXXXXXXXXXXXXXXX X....................XXXXXXXXXXXXXXXXXXXXXXX X..............X",
"XXXXXXXXXXXXXXXXXXXXXXXXXXXXXXXXXXXXXXXXXXXXXXXXXXXXXXXXXXXXXXXXXXXXXXXXXXXXXXXXXXXXXXXXXXXXXXXXXXXX"
};
